<svg width="70" height="75" viewBox="0 0 70 75" fill="none" xmlns="http://www.w3.org/2000/svg">
<g clip-path="url(#clip0_9_369)">
<path d="M35 70C54.33 70 70 54.33 70 35C70 15.67 54.33 0 35 0C15.67 0 0 15.67 0 35C0 54.33 15.67 70 35 70Z" fill="black"/>
<path d="M35 75C54.33 75 70 59.33 70 40C70 20.67 54.33 5 35 5C15.67 5 0 20.67 0 40C0 59.33 15.67 75 35 75Z" fill="black"/>
<path d="M35 67C52.6731 67 67 52.6731 67 35C67 17.3269 52.6731 3 35 3C17.3269 3 3 17.3269 3 35C3 52.6731 17.3269 67 35 67Z" fill="#EA2F55"/>
<path d="M20 34.582L30.264 44.846L50.11 25" stroke="white" stroke-width="3"/>
</g>
<defs>
<clipPath id="clip0_9_369">
<rect width="70" height="75" fill="white"/>
</clipPath>
</defs>
</svg>
