<svg width="58" height="61" viewBox="0 0 58 61" fill="none" xmlns="http://www.w3.org/2000/svg">
<g clip-path="url(#clip0_8_149)">
<path d="M13 26C20.1797 26 26 20.1797 26 13C26 5.8203 20.1797 0 13 0C5.8203 0 0 5.8203 0 13C0 20.1797 5.8203 26 13 26Z" fill="black"/>
<path d="M45 26C52.1797 26 58 20.1797 58 13C58 5.8203 52.1797 0 45 0C37.8203 0 32 5.8203 32 13C32 20.1797 37.8203 26 45 26Z" fill="black"/>
<path d="M13 58C20.1797 58 26 52.1797 26 45C26 37.8203 20.1797 32 13 32C5.8203 32 0 37.8203 0 45C0 52.1797 5.8203 58 13 58Z" fill="black"/>
<path d="M45 58C52.1797 58 58 52.1797 58 45C58 37.8203 52.1797 32 45 32C37.8203 32 32 37.8203 32 45C32 52.1797 37.8203 58 45 58Z" fill="black"/>
<path d="M13 29C20.1797 29 26 23.1797 26 16C26 8.8203 20.1797 3 13 3C5.8203 3 0 8.8203 0 16C0 23.1797 5.8203 29 13 29Z" fill="black"/>
<path d="M45 29C52.1797 29 58 23.1797 58 16C58 8.8203 52.1797 3 45 3C37.8203 3 32 8.8203 32 16C32 23.1797 37.8203 29 45 29Z" fill="black"/>
<path d="M13 61C20.1797 61 26 55.1797 26 48C26 40.8203 20.1797 35 13 35C5.8203 35 0 40.8203 0 48C0 55.1797 5.8203 61 13 61Z" fill="black"/>
<path d="M45 61C52.1797 61 58 55.1797 58 48C58 40.8203 52.1797 35 45 35C37.8203 35 32 40.8203 32 48C32 55.1797 37.8203 61 45 61Z" fill="black"/>
<path d="M13 23C18.5228 23 23 18.5228 23 13C23 7.47715 18.5228 3 13 3C7.47715 3 3 7.47715 3 13C3 18.5228 7.47715 23 13 23Z" fill="#EA2F55"/>
<path d="M45 55C50.5228 55 55 50.5228 55 45C55 39.4772 50.5228 35 45 35C39.4772 35 35 39.4772 35 45C35 50.5228 39.4772 55 45 55Z" fill="#EA2F55"/>
<path d="M45 23C50.5228 23 55 18.5228 55 13C55 7.47715 50.5228 3 45 3C39.4772 3 35 7.47715 35 13C35 18.5228 39.4772 23 45 23Z" fill="#FE8835"/>
<path d="M13 55C18.5228 55 23 50.5228 23 45C23 39.4772 18.5228 35 13 35C7.47715 35 3 39.4772 3 45C3 50.5228 7.47715 55 13 55Z" fill="#FE8835"/>
</g>
<defs>
<clipPath id="clip0_8_149">
<rect width="58" height="61" fill="white"/>
</clipPath>
</defs>
</svg>
