<svg width="38" height="33" viewBox="0 0 38 33" fill="none" xmlns="http://www.w3.org/2000/svg">
<g filter="url(#filter0_i_8_144)">
<path d="M2.38689 23.2664L15.3686 31.4983C16.3902 32.146 17.6298 32.4973 18.9044 32.5C20.179 32.5027 21.4207 32.1568 22.4461 31.5134L35.5893 23.2664C36.337 22.7972 36.9446 22.1855 37.3633 21.4803C37.782 20.7752 38.0001 19.9963 38 19.2065V12.5459C38 11.2076 37.3744 9.92419 36.2609 8.97791C35.1474 8.03162 33.6372 7.5 32.0625 7.5H5.9375C4.36278 7.5 2.85256 8.03162 1.73907 8.97791C0.62557 9.92419 0 11.2076 0 12.5459V19.2226C8.88175e-05 20.008 0.215904 20.7826 0.63028 21.4846C1.04466 22.1866 1.64616 22.7967 2.38689 23.2664Z" fill="black"/>
</g>
<path fill-rule="evenodd" clip-rule="evenodd" d="M18.916 29.773C20.3114 29.7771 21.6709 29.3314 22.793 28.502L33.861 20.329C34.6794 19.7247 35.3445 18.9368 35.8029 18.0286C36.2612 17.1204 36.5 16.1173 36.5 15.1V8.50001C36.501 7.64627 36.3333 6.80075 36.0066 6.01202C35.6798 5.22329 35.2005 4.5069 34.596 3.90402C33.9931 3.29954 33.2767 2.82014 32.488 2.49339C31.6992 2.16664 30.8537 1.99897 30 2.00001H8C7.14627 1.99897 6.30076 2.16664 5.51203 2.49339C4.7233 2.82014 4.00688 3.29954 3.404 3.90402C2.79952 4.5069 2.32016 5.22329 1.99341 6.01202C1.66666 6.80075 1.49896 7.64627 1.5 8.50001V15.116C1.49996 16.1279 1.73619 17.1258 2.18982 18.0303C2.64346 18.9348 3.30196 19.7209 4.11298 20.326L15.045 28.483C16.1628 29.3178 17.5199 29.7701 18.915 29.773H18.916Z" fill="#EA2F55" stroke="black" stroke-width="3"/>
<defs>
<filter id="filter0_i_8_144" x="0" y="7.5" width="38" height="29" filterUnits="userSpaceOnUse" color-interpolation-filters="sRGB">
<feFlood flood-opacity="0" result="BackgroundImageFix"/>
<feBlend mode="normal" in="SourceGraphic" in2="BackgroundImageFix" result="shape"/>
<feColorMatrix in="SourceAlpha" type="matrix" values="0 0 0 0 0 0 0 0 0 0 0 0 0 0 0 0 0 0 127 0" result="hardAlpha"/>
<feOffset dy="5"/>
<feGaussianBlur stdDeviation="2"/>
<feComposite in2="hardAlpha" operator="arithmetic" k2="-1" k3="1"/>
<feColorMatrix type="matrix" values="0 0 0 0 0 0 0 0 0 0 0 0 0 0 0 0 0 0 1 0"/>
<feBlend mode="normal" in2="shape" result="effect1_innerShadow_8_144"/>
</filter>
</defs>
</svg>
