<svg width="38" height="32" viewBox="0 0 38 32" fill="none" xmlns="http://www.w3.org/2000/svg">
<g filter="url(#filter0_i_8_143)">
<path d="M2.38689 22.7664L15.3686 30.9983C16.3902 31.646 17.6298 31.9973 18.9044 32C20.179 32.0027 21.4207 31.6568 22.4461 31.0134L35.5893 22.7664C36.337 22.2972 36.9446 21.6855 37.3633 20.9803C37.782 20.2752 38.0001 19.4963 38 18.7065V12.0459C38 10.7076 37.3744 9.42419 36.2609 8.47791C35.1474 7.53162 33.6372 7 32.0625 7H5.9375C4.36278 7 2.85256 7.53162 1.73907 8.47791C0.62557 9.42419 0 10.7076 0 12.0459V18.7226C8.88175e-05 19.508 0.215904 20.2826 0.63028 20.9846C1.04466 21.6866 1.64616 22.2967 2.38689 22.7664Z" fill="black"/>
</g>
<path fill-rule="evenodd" clip-rule="evenodd" d="M18.916 29.273C20.3114 29.2771 21.6709 28.8314 22.793 28.002L33.861 19.829C34.6794 19.2247 35.3445 18.4368 35.8029 17.5286C36.2612 16.6204 36.5 15.6173 36.5 14.6V8.00001C36.501 7.14627 36.3333 6.30075 36.0066 5.51202C35.6798 4.72329 35.2005 4.0069 34.596 3.40402C33.9931 2.79954 33.2767 2.32014 32.488 1.99339C31.6992 1.66664 30.8537 1.49897 30 1.50001H8C7.14627 1.49897 6.30076 1.66664 5.51203 1.99339C4.7233 2.32014 4.00688 2.79954 3.404 3.40402C2.79952 4.0069 2.32016 4.72329 1.99341 5.51202C1.66666 6.30075 1.49896 7.14627 1.5 8.00001V14.616C1.49996 15.6279 1.73619 16.6258 2.18982 17.5303C2.64346 18.4348 3.30196 19.2209 4.11298 19.826L15.045 27.983C16.1628 28.8178 17.5199 29.2701 18.915 29.273H18.916Z" fill="#FE8835" stroke="black" stroke-width="3"/>
<defs>
<filter id="filter0_i_8_143" x="0" y="7" width="38" height="29" filterUnits="userSpaceOnUse" color-interpolation-filters="sRGB">
<feFlood flood-opacity="0" result="BackgroundImageFix"/>
<feBlend mode="normal" in="SourceGraphic" in2="BackgroundImageFix" result="shape"/>
<feColorMatrix in="SourceAlpha" type="matrix" values="0 0 0 0 0 0 0 0 0 0 0 0 0 0 0 0 0 0 127 0" result="hardAlpha"/>
<feOffset dy="5"/>
<feGaussianBlur stdDeviation="2"/>
<feComposite in2="hardAlpha" operator="arithmetic" k2="-1" k3="1"/>
<feColorMatrix type="matrix" values="0 0 0 0 0 0 0 0 0 0 0 0 0 0 0 0 0 0 1 0"/>
<feBlend mode="normal" in2="shape" result="effect1_innerShadow_8_143"/>
</filter>
</defs>
</svg>
