<svg width="80" height="80" viewBox="0 0 80 80" fill="none" xmlns="http://www.w3.org/2000/svg">
<g clip-path="url(#clip0_5_120)">
<path d="M40 78.7302C61.3901 78.7302 78.7302 61.3901 78.7302 40C78.7302 18.6099 61.3901 1.26984 40 1.26984C18.6099 1.26984 1.26984 18.6099 1.26984 40C1.26984 61.3901 18.6099 78.7302 40 78.7302Z" fill="black" fill-opacity="0.6"/>
<path d="M40 78.7302C61.3901 78.7302 78.7302 61.3901 78.7302 40C78.7302 18.6099 61.3901 1.26984 40 1.26984C18.6099 1.26984 1.26984 18.6099 1.26984 40C1.26984 61.3901 18.6099 78.7302 40 78.7302Z" fill="#FE8835" fill-opacity="0.5"/>
<path d="M40 78.7302C61.3901 78.7302 78.7302 61.3901 78.7302 40C78.7302 18.6099 61.3901 1.26984 40 1.26984C18.6099 1.26984 1.26984 18.6099 1.26984 40C1.26984 61.3901 18.6099 78.7302 40 78.7302Z" stroke="black" stroke-width="6"/>
<path d="M77.4603 40.6349C77.4603 59.395 60.605 77.4603 39.7409 77.4603C18.8768 77.4603 2.53967 59.395 2.53967 40.6349C2.53967 21.8748 18.8768 9.5238 39.7409 9.5238C60.605 9.5238 77.4603 21.8748 77.4603 40.6349Z" fill="#FE8835"/>
</g>
<defs>
<clipPath id="clip0_5_120">
<rect width="80" height="80" fill="white"/>
</clipPath>
</defs>
</svg>
