<svg width="82" height="46" viewBox="0 0 82 46" fill="none" xmlns="http://www.w3.org/2000/svg">
<g clip-path="url(#clip0_8_232)">
<path d="M59 46C71.7025 46 82 35.7025 82 23C82 10.2975 71.7025 0 59 0C46.2975 0 36 10.2975 36 23C36 35.7025 46.2975 46 59 46Z" fill="black"/>
<path d="M59 43C70.0457 43 79 34.0457 79 23C79 11.9543 70.0457 3 59 3C47.9543 3 39 11.9543 39 23C39 34.0457 47.9543 43 59 43Z" fill="#EA2F55"/>
<path d="M61.0833 15.9167H66.0833" stroke="black" stroke-width="3"/>
<path d="M51.9167 15.9167H56.9167" stroke="black" stroke-width="3"/>
<path d="M49 21.75H69" stroke="black" stroke-width="3"/>
<path d="M23 46C35.7025 46 46 35.7025 46 23C46 10.2975 35.7025 0 23 0C10.2975 0 0 10.2975 0 23C0 35.7025 10.2975 46 23 46Z" fill="black"/>
<path d="M23 43C34.0457 43 43 34.0457 43 23C43 11.9543 34.0457 3 23 3C11.9543 3 3 11.9543 3 23C3 34.0457 11.9543 43 23 43Z" fill="#EA2F55"/>
<path d="M13 21.9583C13 27.4812 17.4772 31.9583 23 31.9583C28.5228 31.9583 33 27.4812 33 21.9583" stroke="black" stroke-width="3"/>
<path d="M19.0417 14.6667V19.6537" stroke="black" stroke-width="3"/>
<path d="M27.375 14.6667V19.6537" stroke="black" stroke-width="3"/>
</g>
<defs>
<clipPath id="clip0_8_232">
<rect width="82" height="46" fill="white"/>
</clipPath>
</defs>
</svg>
