<svg width="54" height="59" viewBox="0 0 54 59" fill="none" xmlns="http://www.w3.org/2000/svg">
<path d="M27 59C12.0883 59 0 46.9117 0 32C0 17.0883 12.0883 5 27 5C41.9117 5 54 17.0883 54 32C54 46.9117 41.9117 59 27 59Z" fill="black"/>
<path d="M27 54C41.9117 54 54 41.9117 54 27C54 12.0883 41.9117 0 27 0C12.0883 0 0 12.0883 0 27C0 41.9117 12.0883 54 27 54Z" fill="black"/>
<path d="M27 50.4782C39.9667 50.4782 50.4782 39.9667 50.4782 27C50.4782 14.0333 39.9667 3.52173 27 3.52173C14.0333 3.52173 3.52173 14.0333 3.52173 27C3.52173 39.9667 14.0333 50.4782 27 50.4782Z" fill="#FE8835"/>
<path d="M29.4457 18.6848H35.3152" stroke="black" stroke-width="3"/>
<path d="M18.6848 18.6848H24.5544" stroke="black" stroke-width="3"/>
<path d="M15.2609 25.5326H38.7391" stroke="black" stroke-width="3"/>
</svg>
