<svg width="632" height="596" viewBox="0 0 632 596" fill="none" xmlns="http://www.w3.org/2000/svg" preserveAspectRation="none">
<g filter="url(#filter0_i_1_11)">
<path d="M592 11.5C614.091 11.5 632 29.409 632 51.5V555.5C632 577.591 614.091 595.5 592 595.5H40C17.909 595.5 0 577.591 0 555.5V51.5C0 29.409 17.909 11.5 40 11.5H592ZM580 471.5C562.327 471.5 548 485.827 548 503.5C548 521.173 562.327 535.5 580 535.5C597.673 535.5 612 521.173 612 503.5C612 485.827 597.673 471.5 580 471.5ZM492 471.5C474.327 471.5 460 485.827 460 503.5C460 521.173 474.327 535.5 492 535.5C509.673 535.5 524 521.173 524 503.5C524 485.827 509.673 471.5 492 471.5ZM404 471.5C386.327 471.5 372 485.827 372 503.5C372 521.173 386.327 535.5 404 535.5C421.673 535.5 436 521.173 436 503.5C436 485.827 421.673 471.5 404 471.5ZM228 471.5C210.327 471.5 196 485.827 196 503.5C196 521.173 210.327 535.5 228 535.5C245.673 535.5 260 521.173 260 503.5C260 485.827 245.673 471.5 228 471.5ZM316 471.5C298.327 471.5 284 485.827 284 503.5C284 521.173 298.327 535.5 316 535.5C333.673 535.5 348 521.173 348 503.5C348 485.827 333.673 471.5 316 471.5ZM140 471.5C122.327 471.5 108 485.827 108 503.5C108 521.173 122.327 535.5 140 535.5C157.673 535.5 172 521.173 172 503.5C172 486.004 157.958 471.787 140.53 471.504L140 471.5ZM52 471.5C34.327 471.5 20 485.827 20 503.5C20 521.173 34.327 535.5 52 535.5C69.673 535.5 84 521.173 84 503.5C84 485.827 69.673 471.5 52 471.5ZM580 383.5C562.327 383.5 548 397.827 548 415.5C548 433.173 562.327 447.5 580 447.5C597.673 447.5 612 433.173 612 415.5C612 397.827 597.673 383.5 580 383.5ZM492 383.5C474.327 383.5 460 397.827 460 415.5C460 433.173 474.327 447.5 492 447.5C509.673 447.5 524 433.173 524 415.5C524 397.827 509.673 383.5 492 383.5ZM404 383.5C386.327 383.5 372 397.827 372 415.5C372 433.173 386.327 447.5 404 447.5C421.673 447.5 436 433.173 436 415.5C436 397.827 421.673 383.5 404 383.5ZM316 383.5C298.327 383.5 284 397.827 284 415.5C284 433.173 298.327 447.5 316 447.5C333.673 447.5 348 433.173 348 415.5C348 397.827 333.673 383.5 316 383.5ZM228 383.5C210.327 383.5 196 397.827 196 415.5C196 433.173 210.327 447.5 228 447.5C245.673 447.5 260 433.173 260 415.5C260 397.827 245.673 383.5 228 383.5ZM140 383.5C122.327 383.5 108 397.827 108 415.5C108 433.173 122.327 447.5 140 447.5C157.673 447.5 172 433.173 172 415.5C172 397.827 157.673 383.5 140 383.5ZM52 383.5C34.327 383.5 20 397.827 20 415.5C20 433.173 34.327 447.5 52 447.5C69.673 447.5 84 433.173 84 415.5C84 397.827 69.673 383.5 52 383.5ZM52 295.5C34.327 295.5 20 309.827 20 327.5C20 345.173 34.327 359.5 52 359.5C69.673 359.5 84 345.173 84 327.5C84 309.827 69.673 295.5 52 295.5ZM140 295.5C122.327 295.5 108 309.827 108 327.5C108 345.173 122.327 359.5 140 359.5C157.673 359.5 172 345.173 172 327.5C172 309.827 157.673 295.5 140 295.5ZM228 295.5C210.327 295.5 196 309.827 196 327.5C196 345.173 210.327 359.5 228 359.5C245.673 359.5 260 345.173 260 327.5C260 309.827 245.673 295.5 228 295.5ZM316 295.5C298.327 295.5 284 309.827 284 327.5C284 345.173 298.327 359.5 316 359.5C333.673 359.5 348 345.173 348 327.5C348 309.827 333.673 295.5 316 295.5ZM404 295.5C386.327 295.5 372 309.827 372 327.5C372 345.173 386.327 359.5 404 359.5C421.673 359.5 436 345.173 436 327.5C436 309.827 421.673 295.5 404 295.5ZM492 295.5C474.327 295.5 460 309.827 460 327.5C460 345.173 474.327 359.5 492 359.5C509.673 359.5 524 345.173 524 327.5C524 309.827 509.673 295.5 492 295.5ZM580 295.5C562.327 295.5 548 309.827 548 327.5C548 345.173 562.327 359.5 580 359.5C597.673 359.5 612 345.173 612 327.5C612 309.827 597.673 295.5 580 295.5ZM140 207.5C122.327 207.5 108 221.827 108 239.5C108 257.173 122.327 271.5 140 271.5C157.673 271.5 172 257.173 172 239.5C172 221.827 157.673 207.5 140 207.5ZM228 207.5C210.327 207.5 196 221.827 196 239.5C196 257.173 210.327 271.5 228 271.5C245.673 271.5 260 257.173 260 239.5C260 221.827 245.673 207.5 228 207.5ZM316 207.5C298.327 207.5 284 221.827 284 239.5C284 257.173 298.327 271.5 316 271.5C333.673 271.5 348 257.173 348 239.5C348 221.827 333.673 207.5 316 207.5ZM404 207.5C386.327 207.5 372 221.827 372 239.5C372 257.173 386.327 271.5 404 271.5C421.673 271.5 436 257.173 436 239.5C436 221.827 421.673 207.5 404 207.5ZM492 207.5C474.327 207.5 460 221.827 460 239.5C460 257.173 474.327 271.5 492 271.5C509.673 271.5 524 257.173 524 239.5C524 221.827 509.673 207.5 492 207.5ZM580 207.5C562.327 207.5 548 221.827 548 239.5C548 257.173 562.327 271.5 580 271.5C597.673 271.5 612 257.173 612 239.5C612 221.827 597.673 207.5 580 207.5ZM52 207.5C34.327 207.5 20 221.827 20 239.5C20 257.173 34.327 271.5 52 271.5C69.673 271.5 84 257.173 84 239.5C84 221.827 69.673 207.5 52 207.5ZM580 119.5C562.327 119.5 548 133.827 548 151.5C548 169.173 562.327 183.5 580 183.5C597.673 183.5 612 169.173 612 151.5C612 133.827 597.673 119.5 580 119.5ZM492 119.5C474.327 119.5 460 133.827 460 151.5C460 169.173 474.327 183.5 492 183.5C509.673 183.5 524 169.173 524 151.5C524 133.827 509.673 119.5 492 119.5ZM404 119.5C386.327 119.5 372 133.827 372 151.5C372 169.173 386.327 183.5 404 183.5C421.673 183.5 436 169.173 436 151.5C436 133.827 421.673 119.5 404 119.5ZM316 119.5C298.327 119.5 284 133.827 284 151.5C284 169.173 298.327 183.5 316 183.5C333.673 183.5 348 169.173 348 151.5C348 133.827 333.673 119.5 316 119.5ZM228 119.5C210.327 119.5 196 133.827 196 151.5C196 169.173 210.327 183.5 228 183.5C245.673 183.5 260 169.173 260 151.5C260 133.827 245.673 119.5 228 119.5ZM140 119.5C122.327 119.5 108 133.827 108 151.5C108 169.173 122.327 183.5 140 183.5C157.673 183.5 172 169.173 172 151.5C172 133.827 157.673 119.5 140 119.5ZM52 119.5C34.327 119.5 20 133.827 20 151.5C20 169.173 34.327 183.5 52 183.5C69.673 183.5 84 169.173 84 151.5C84 133.827 69.673 119.5 52 119.5ZM580 31.5C562.327 31.5 548 45.827 548 63.5C548 81.173 562.327 95.5 580 95.5C597.673 95.5 612 81.173 612 63.5C612 45.827 597.673 31.5 580 31.5ZM492 31.5C474.327 31.5 460 45.827 460 63.5C460 81.173 474.327 95.5 492 95.5C509.673 95.5 524 81.173 524 63.5C524 45.827 509.673 31.5 492 31.5ZM404 31.5C386.327 31.5 372 45.827 372 63.5C372 81.173 386.327 95.5 404 95.5C421.673 95.5 436 81.173 436 63.5C436 45.827 421.673 31.5 404 31.5ZM316 31.5C298.327 31.5 284 45.827 284 63.5C284 81.173 298.327 95.5 316 95.5C333.673 95.5 348 81.173 348 63.5C348 45.827 333.673 31.5 316 31.5ZM228 31.5C210.327 31.5 196 45.827 196 63.5C196 81.173 210.327 95.5 228 95.5C245.673 95.5 260 81.173 260 63.5C260 45.827 245.673 31.5 228 31.5ZM140 31.5C122.327 31.5 108 45.827 108 63.5C108 81.173 122.327 95.5 140 95.5C157.673 95.5 172 81.173 172 63.5C172 45.827 157.673 31.5 140 31.5ZM52 31.5C34.327 31.5 20 45.827 20 63.5C20 81.173 34.327 95.5 52 95.5C69.673 95.5 84 81.173 84 63.5C84 45.827 69.673 31.5 52 31.5Z" fill="black"/>
</g>
<path fill-rule="evenodd" clip-rule="evenodd" d="M592 13C602.631 13 612.256 17.31 619.224 24.276C626.19 31.244 630.5 40.87 630.5 51.5V555.5C630.5 566.131 626.19 575.756 619.224 582.724C612.256 589.69 602.63 594 592 594H40C29.369 594 19.744 589.69 12.776 582.724C5.81 575.756 1.5 566.13 1.5 555.5V51.5C1.5 40.869 5.81 31.244 12.776 24.276C19.744 17.31 29.37 13 40 13H592ZM580 470C570.75 470 562.374 473.75 556.312 479.812C550.25 485.874 546.5 494.249 546.5 503.5C546.5 512.75 550.25 521.126 556.312 527.188C562.374 533.25 570.749 537 580 537C589.25 537 597.626 533.25 603.688 527.188C609.75 521.126 613.5 512.751 613.5 503.5C613.5 494.25 609.75 485.874 603.688 479.812C597.626 473.75 589.251 470 580 470ZM492 470C482.75 470 474.374 473.75 468.312 479.812C462.25 485.874 458.5 494.249 458.5 503.5C458.5 512.75 462.25 521.126 468.312 527.188C474.374 533.25 482.749 537 492 537C501.25 537 509.626 533.25 515.688 527.188C521.75 521.126 525.5 512.751 525.5 503.5C525.5 494.25 521.75 485.874 515.688 479.812C509.74 473.864 501.566 470.142 492.523 470.004L492 470ZM404 470C394.75 470 386.374 473.75 380.312 479.812C374.25 485.874 370.5 494.249 370.5 503.5C370.5 512.75 374.25 521.126 380.312 527.188C386.374 533.25 394.749 537 404 537C413.25 537 421.626 533.25 427.688 527.188C433.75 521.126 437.5 512.751 437.5 503.5C437.5 494.25 433.75 485.874 427.688 479.812C421.626 473.75 413.251 470 404 470ZM228 470C218.75 470 210.374 473.75 204.312 479.812C198.25 485.874 194.5 494.249 194.5 503.5C194.5 512.75 198.25 521.126 204.312 527.188C210.374 533.25 218.749 537 228 537C237.25 537 245.626 533.25 251.688 527.188C257.75 521.126 261.5 512.751 261.5 503.5C261.5 494.25 257.75 485.874 251.688 479.812C245.626 473.75 237.251 470 228 470ZM316 470C306.75 470 298.374 473.75 292.312 479.812C286.25 485.874 282.5 494.249 282.5 503.5C282.5 512.75 286.25 521.126 292.312 527.188C298.374 533.25 306.749 537 316 537C325.25 537 333.626 533.25 339.688 527.188C345.75 521.126 349.5 512.751 349.5 503.5C349.5 494.25 345.75 485.874 339.688 479.812C333.626 473.75 325.251 470 316 470ZM140.006 470C130.753 469.998 122.376 473.748 116.312 479.812C110.25 485.874 106.5 494.249 106.5 503.5C106.5 512.75 110.25 521.126 116.312 527.188C122.374 533.25 130.749 537 140 537C149.25 537 157.626 533.25 163.688 527.188C169.75 521.126 173.5 512.751 173.5 503.5C173.5 494.35 169.831 486.056 163.884 480.01C157.926 473.952 149.681 470.15 140.547 470.004L140.006 470ZM52 470C42.75 470 34.374 473.75 28.312 479.812C22.25 485.874 18.5 494.249 18.5 503.5C18.5 512.75 22.25 521.126 28.312 527.188C34.374 533.25 42.749 537 52 537C61.25 537 69.626 533.25 75.688 527.188C81.75 521.126 85.5 512.751 85.5 503.5C85.5 494.25 81.75 485.874 75.688 479.812C69.626 473.75 61.251 470 52 470ZM580 382C570.75 382 562.374 385.75 556.312 391.812C550.25 397.874 546.5 406.249 546.5 415.5C546.5 424.75 550.25 433.126 556.312 439.188C562.374 445.25 570.749 449 580 449C589.25 449 597.626 445.25 603.688 439.188C609.75 433.126 613.5 424.751 613.5 415.5C613.5 406.25 609.75 397.874 603.688 391.812C597.626 385.75 589.251 382 580 382ZM492 382C482.75 382 474.374 385.75 468.312 391.812C462.25 397.874 458.5 406.249 458.5 415.5C458.5 424.75 462.25 433.126 468.312 439.188C474.374 445.25 482.749 449 492 449C501.25 449 509.626 445.25 515.688 439.188C521.75 433.126 525.5 424.751 525.5 415.5C525.5 406.25 521.75 397.874 515.688 391.812C509.626 385.75 501.251 382 492 382ZM404 382C394.75 382 386.374 385.75 380.312 391.812C374.25 397.874 370.5 406.249 370.5 415.5C370.5 424.75 374.25 433.126 380.312 439.188C386.374 445.25 394.749 449 404 449C413.25 449 421.626 445.25 427.688 439.188C433.75 433.126 437.5 424.751 437.5 415.5C437.5 406.25 433.75 397.874 427.688 391.812C421.626 385.75 413.251 382 404 382ZM316 382C306.75 382 298.374 385.75 292.312 391.812C286.25 397.874 282.5 406.249 282.5 415.5C282.5 424.75 286.25 433.126 292.312 439.188C298.374 445.25 306.749 449 316 449C325.25 449 333.626 445.25 339.688 439.188C345.75 433.126 349.5 424.751 349.5 415.5C349.5 406.25 345.75 397.874 339.688 391.812C333.626 385.75 325.251 382 316 382ZM228 382C218.75 382 210.374 385.75 204.312 391.812C198.25 397.874 194.5 406.249 194.5 415.5C194.5 424.75 198.25 433.126 204.312 439.188C210.374 445.25 218.749 449 228 449C237.25 449 245.626 445.25 251.688 439.188C257.75 433.126 261.5 424.751 261.5 415.5C261.5 406.25 257.75 397.874 251.688 391.812C245.626 385.75 237.251 382 228 382ZM140 382C130.75 382 122.374 385.75 116.312 391.812C110.25 397.874 106.5 406.249 106.5 415.5C106.5 424.75 110.25 433.126 116.312 439.188C122.374 445.25 130.749 449 140 449C149.25 449 157.626 445.25 163.688 439.188C169.75 433.126 173.5 424.751 173.5 415.5C173.5 406.25 169.75 397.874 163.688 391.812C157.626 385.75 149.251 382 140 382ZM52 382C42.75 382 34.374 385.75 28.312 391.812C22.25 397.874 18.5 406.249 18.5 415.5C18.5 424.75 22.25 433.126 28.312 439.188C34.374 445.25 42.749 449 52 449C61.25 449 69.626 445.25 75.688 439.188C81.75 433.126 85.5 424.751 85.5 415.5C85.5 406.25 81.75 397.874 75.688 391.812C69.626 385.75 61.251 382 52 382ZM52 294C42.75 294 34.374 297.75 28.312 303.812C22.25 309.874 18.5 318.249 18.5 327.5C18.5 336.75 22.25 345.126 28.312 351.188C34.374 357.25 42.749 361 52 361C61.25 361 69.626 357.25 75.688 351.188C81.75 345.126 85.5 336.751 85.5 327.5C85.5 318.25 81.75 309.874 75.688 303.812C69.626 297.75 61.251 294 52 294ZM140 294C130.75 294 122.374 297.75 116.312 303.812C110.25 309.874 106.5 318.249 106.5 327.5C106.5 336.75 110.25 345.126 116.312 351.188C122.374 357.25 130.749 361 140 361C149.25 361 157.626 357.25 163.688 351.188C169.75 345.126 173.5 336.751 173.5 327.5C173.5 318.25 169.75 309.874 163.688 303.812C157.626 297.75 149.251 294 140 294ZM228 294C218.75 294 210.374 297.75 204.312 303.812C198.25 309.874 194.5 318.249 194.5 327.5C194.5 336.75 198.25 345.126 204.312 351.188C210.374 357.25 218.749 361 228 361C237.25 361 245.626 357.25 251.688 351.188C257.75 345.126 261.5 336.751 261.5 327.5C261.5 318.25 257.75 309.874 251.688 303.812C245.626 297.75 237.251 294 228 294ZM316 294C306.75 294 298.374 297.75 292.312 303.812C286.25 309.874 282.5 318.249 282.5 327.5C282.5 336.75 286.25 345.126 292.312 351.188C298.374 357.25 306.749 361 316 361C325.25 361 333.626 357.25 339.688 351.188C345.75 345.126 349.5 336.751 349.5 327.5C349.5 318.25 345.75 309.874 339.688 303.812C333.626 297.75 325.251 294 316 294ZM404 294C394.75 294 386.374 297.75 380.312 303.812C374.25 309.874 370.5 318.249 370.5 327.5C370.5 336.75 374.25 345.126 380.312 351.188C386.374 357.25 394.749 361 404 361C413.25 361 421.626 357.25 427.688 351.188C433.75 345.126 437.5 336.751 437.5 327.5C437.5 318.25 433.75 309.874 427.688 303.812C421.626 297.75 413.251 294 404 294ZM492 294C482.75 294 474.374 297.75 468.312 303.812C462.25 309.874 458.5 318.249 458.5 327.5C458.5 336.75 462.25 345.126 468.312 351.188C474.374 357.25 482.749 361 492 361C501.25 361 509.626 357.25 515.688 351.188C521.75 345.126 525.5 336.751 525.5 327.5C525.5 318.25 521.75 309.874 515.688 303.812C509.626 297.75 501.251 294 492 294ZM580 294C570.75 294 562.374 297.75 556.312 303.812C550.25 309.874 546.5 318.249 546.5 327.5C546.5 336.75 550.25 345.126 556.312 351.188C562.374 357.25 570.749 361 580 361C589.25 361 597.626 357.25 603.688 351.188C609.75 345.126 613.5 336.751 613.5 327.5C613.5 318.25 609.75 309.874 603.688 303.812C597.626 297.75 589.251 294 580 294ZM140 206C130.75 206 122.374 209.75 116.312 215.812C110.25 221.874 106.5 230.249 106.5 239.5C106.5 248.75 110.25 257.126 116.312 263.188C122.374 269.25 130.749 273 140 273C149.25 273 157.626 269.25 163.688 263.188C169.75 257.126 173.5 248.751 173.5 239.5C173.5 230.25 169.75 221.874 163.688 215.812C157.626 209.75 149.251 206 140 206ZM228 206C218.75 206 210.374 209.75 204.312 215.812C198.25 221.874 194.5 230.249 194.5 239.5C194.5 248.75 198.25 257.126 204.312 263.188C210.374 269.25 218.749 273 228 273C237.25 273 245.626 269.25 251.688 263.188C257.75 257.126 261.5 248.751 261.5 239.5C261.5 230.25 257.75 221.874 251.688 215.812C245.626 209.75 237.251 206 228 206ZM316 206C306.75 206 298.374 209.75 292.312 215.812C286.25 221.874 282.5 230.249 282.5 239.5C282.5 248.75 286.25 257.126 292.312 263.188C298.374 269.25 306.749 273 316 273C325.25 273 333.626 269.25 339.688 263.188C345.75 257.126 349.5 248.751 349.5 239.5C349.5 230.25 345.75 221.874 339.688 215.812C333.626 209.75 325.251 206 316 206ZM404 206C394.75 206 386.374 209.75 380.312 215.812C374.25 221.874 370.5 230.249 370.5 239.5C370.5 248.75 374.25 257.126 380.312 263.188C386.374 269.25 394.749 273 404 273C413.25 273 421.626 269.25 427.688 263.188C433.75 257.126 437.5 248.751 437.5 239.5C437.5 230.25 433.75 221.874 427.688 215.812C421.626 209.75 413.251 206 404 206ZM492 206C482.75 206 474.374 209.75 468.312 215.812C462.25 221.874 458.5 230.249 458.5 239.5C458.5 248.75 462.25 257.126 468.312 263.188C474.374 269.25 482.749 273 492 273C501.25 273 509.626 269.25 515.688 263.188C521.75 257.126 525.5 248.751 525.5 239.5C525.5 230.25 521.75 221.874 515.688 215.812C509.626 209.75 501.251 206 492 206ZM580 206C570.75 206 562.374 209.75 556.312 215.812C550.25 221.874 546.5 230.249 546.5 239.5C546.5 248.75 550.25 257.126 556.312 263.188C562.374 269.25 570.749 273 580 273C589.25 273 597.626 269.25 603.688 263.188C609.75 257.126 613.5 248.751 613.5 239.5C613.5 230.25 609.75 221.874 603.688 215.812C597.626 209.75 589.251 206 580 206ZM52 206C42.75 206 34.374 209.75 28.312 215.812C22.25 221.874 18.5 230.249 18.5 239.5C18.5 248.75 22.25 257.126 28.312 263.188C34.374 269.25 42.749 273 52 273C61.25 273 69.626 269.25 75.688 263.188C81.75 257.126 85.5 248.751 85.5 239.5C85.5 230.25 81.75 221.874 75.688 215.812C69.626 209.75 61.251 206 52 206ZM580 118C570.75 118 562.374 121.75 556.312 127.812C550.25 133.874 546.5 142.249 546.5 151.5C546.5 160.75 550.25 169.126 556.312 175.188C562.374 181.25 570.749 185 580 185C589.25 185 597.626 181.25 603.688 175.188C609.75 169.126 613.5 160.751 613.5 151.5C613.5 142.25 609.75 133.874 603.688 127.812C597.626 121.75 589.251 118 580 118ZM492 118C482.75 118 474.374 121.75 468.312 127.812C462.25 133.874 458.5 142.249 458.5 151.5C458.5 160.75 462.25 169.126 468.312 175.188C474.374 181.25 482.749 185 492 185C501.25 185 509.626 181.25 515.688 175.188C521.75 169.126 525.5 160.751 525.5 151.5C525.5 142.25 521.75 133.874 515.688 127.812C509.626 121.75 501.251 118 492 118ZM404 118C394.75 118 386.374 121.75 380.312 127.812C374.25 133.874 370.5 142.249 370.5 151.5C370.5 160.75 374.25 169.126 380.312 175.188C386.374 181.25 394.749 185 404 185C413.25 185 421.626 181.25 427.688 175.188C433.75 169.126 437.5 160.751 437.5 151.5C437.5 142.25 433.75 133.874 427.688 127.812C421.626 121.75 413.251 118 404 118ZM316 118C306.75 118 298.374 121.75 292.312 127.812C286.25 133.874 282.5 142.249 282.5 151.5C282.5 160.75 286.25 169.126 292.312 175.188C298.374 181.25 306.749 185 316 185C325.25 185 333.626 181.25 339.688 175.188C345.75 169.126 349.5 160.751 349.5 151.5C349.5 142.25 345.75 133.874 339.688 127.812C333.626 121.75 325.251 118 316 118ZM228 118C218.75 118 210.374 121.75 204.312 127.812C198.25 133.874 194.5 142.249 194.5 151.5C194.5 160.75 198.25 169.126 204.312 175.188C210.374 181.25 218.749 185 228 185C237.25 185 245.626 181.25 251.688 175.188C257.75 169.126 261.5 160.751 261.5 151.5C261.5 142.25 257.75 133.874 251.688 127.812C245.626 121.75 237.251 118 228 118ZM140 118C130.75 118 122.374 121.75 116.312 127.812C110.25 133.874 106.5 142.249 106.5 151.5C106.5 160.75 110.25 169.126 116.312 175.188C122.374 181.25 130.749 185 140 185C149.25 185 157.626 181.25 163.688 175.188C169.75 169.126 173.5 160.751 173.5 151.5C173.5 142.25 169.75 133.874 163.688 127.812C157.626 121.75 149.251 118 140 118ZM52 118C42.75 118 34.374 121.75 28.312 127.812C22.25 133.874 18.5 142.249 18.5 151.5C18.5 160.75 22.25 169.126 28.312 175.188C34.374 181.25 42.749 185 52 185C61.25 185 69.626 181.25 75.688 175.188C81.75 169.126 85.5 160.751 85.5 151.5C85.5 142.25 81.75 133.874 75.688 127.812C69.626 121.75 61.251 118 52 118ZM580 30C570.75 30 562.374 33.75 556.312 39.812C550.25 45.874 546.5 54.249 546.5 63.5C546.5 72.75 550.25 81.126 556.312 87.188C562.374 93.25 570.749 97 580 97C589.25 97 597.626 93.25 603.688 87.188C609.75 81.126 613.5 72.751 613.5 63.5C613.5 54.25 609.75 45.874 603.688 39.812C597.626 33.75 589.251 30 580 30ZM492 30C482.75 30 474.374 33.75 468.312 39.812C462.25 45.874 458.5 54.249 458.5 63.5C458.5 72.75 462.25 81.126 468.312 87.188C474.374 93.25 482.749 97 492 97C501.25 97 509.626 93.25 515.688 87.188C521.75 81.126 525.5 72.751 525.5 63.5C525.5 54.25 521.75 45.874 515.688 39.812C509.626 33.75 501.251 30 492 30ZM404 30C394.75 30 386.374 33.75 380.312 39.812C374.25 45.874 370.5 54.249 370.5 63.5C370.5 72.75 374.25 81.126 380.312 87.188C386.374 93.25 394.749 97 404 97C413.25 97 421.626 93.25 427.688 87.188C433.75 81.126 437.5 72.751 437.5 63.5C437.5 54.25 433.75 45.874 427.688 39.812C421.626 33.75 413.251 30 404 30ZM316 30C306.75 30 298.374 33.75 292.312 39.812C286.25 45.874 282.5 54.249 282.5 63.5C282.5 72.75 286.25 81.126 292.312 87.188C298.374 93.25 306.749 97 316 97C325.25 97 333.626 93.25 339.688 87.188C345.75 81.126 349.5 72.751 349.5 63.5C349.5 54.25 345.75 45.874 339.688 39.812C333.626 33.75 325.251 30 316 30ZM228 30C218.75 30 210.374 33.75 204.312 39.812C198.25 45.874 194.5 54.249 194.5 63.5C194.5 72.75 198.25 81.126 204.312 87.188C210.374 93.25 218.749 97 228 97C237.25 97 245.626 93.25 251.688 87.188C257.75 81.126 261.5 72.751 261.5 63.5C261.5 54.25 257.75 45.874 251.688 39.812C245.626 33.75 237.251 30 228 30ZM140 30C130.75 30 122.374 33.75 116.312 39.812C110.25 45.874 106.5 54.249 106.5 63.5C106.5 72.75 110.25 81.126 116.312 87.188C122.374 93.25 130.749 97 140 97C149.25 97 157.626 93.25 163.688 87.188C169.75 81.126 173.5 72.751 173.5 63.5C173.5 54.25 169.75 45.874 163.688 39.812C157.626 33.75 149.251 30 140 30ZM52 30C42.75 30 34.374 33.75 28.312 39.812C22.25 45.874 18.5 54.249 18.5 63.5C18.5 72.75 22.25 81.126 28.312 87.188C34.374 93.25 42.749 97 52 97C61.25 97 69.626 93.25 75.688 87.188C81.75 81.126 85.5 72.751 85.5 63.5C85.5 54.25 81.75 45.874 75.688 39.812C69.626 33.75 61.251 30 52 30Z" fill="black" stroke="black" stroke-width="3"/>
<path fill-rule="evenodd" clip-rule="evenodd" d="M592 2C602.631 2 612.256 6.31 619.224 13.276C626.19 20.244 630.5 29.87 630.5 40.5V544.5C630.5 555.131 626.19 564.756 619.224 571.724C612.256 578.69 602.63 583 592 583H40C29.369 583 19.744 578.69 12.776 571.724C5.81 564.756 1.5 555.13 1.5 544.5V40.5C1.5 29.869 5.81 20.244 12.776 13.276C19.744 6.31 29.37 2 40 2H592ZM580 459C570.75 459 562.374 462.75 556.312 468.812C550.25 474.874 546.5 483.249 546.5 492.5C546.5 501.75 550.25 510.126 556.312 516.188C562.374 522.25 570.749 526 580 526C589.25 526 597.626 522.25 603.688 516.188C609.75 510.126 613.5 501.751 613.5 492.5C613.5 483.25 609.75 474.874 603.688 468.812C597.626 462.75 589.251 459 580 459ZM492 459C482.75 459 474.374 462.75 468.312 468.812C462.25 474.874 458.5 483.249 458.5 492.5C458.5 501.75 462.25 510.126 468.312 516.188C474.374 522.25 482.749 526 492 526C501.25 526 509.626 522.25 515.688 516.188C521.75 510.126 525.5 501.751 525.5 492.5C525.5 483.25 521.75 474.874 515.688 468.812C509.626 462.75 501.251 459 492 459ZM404 459C394.75 459 386.374 462.75 380.312 468.812C374.25 474.874 370.5 483.249 370.5 492.5C370.5 501.75 374.25 510.126 380.312 516.188C386.374 522.25 394.749 526 404 526C413.25 526 421.626 522.25 427.688 516.188C433.75 510.126 437.5 501.751 437.5 492.5C437.5 483.25 433.75 474.874 427.688 468.812C421.626 462.75 413.251 459 404 459ZM228 459C218.75 459 210.374 462.75 204.312 468.812C198.25 474.874 194.5 483.249 194.5 492.5C194.5 501.75 198.25 510.126 204.312 516.188C210.374 522.25 218.749 526 228 526C237.25 526 245.626 522.25 251.688 516.188C257.75 510.126 261.5 501.751 261.5 492.5C261.5 483.25 257.75 474.874 251.688 468.812C245.626 462.75 237.251 459 228 459ZM316 459C306.75 459 298.374 462.75 292.312 468.812C286.25 474.874 282.5 483.249 282.5 492.5C282.5 501.75 286.25 510.126 292.312 516.188C298.374 522.25 306.749 526 316 526C325.25 526 333.626 522.25 339.688 516.188C345.75 510.126 349.5 501.751 349.5 492.5C349.5 483.25 345.75 474.874 339.688 468.812C333.626 462.75 325.251 459 316 459ZM140.006 459C130.753 458.998 122.376 462.748 116.312 468.812C110.25 474.874 106.5 483.249 106.5 492.5C106.5 501.75 110.25 510.126 116.312 516.188C122.374 522.25 130.749 526 140 526C149.25 526 157.626 522.25 163.688 516.188C169.75 510.126 173.5 501.751 173.5 492.5C173.5 483.35 169.831 475.056 163.884 469.01C157.926 462.952 149.681 459.15 140.547 459.004L140.006 459ZM52 459C42.75 459 34.374 462.75 28.312 468.812C22.25 474.874 18.5 483.249 18.5 492.5C18.5 501.75 22.25 510.126 28.312 516.188C34.374 522.25 42.749 526 52 526C61.25 526 69.626 522.25 75.688 516.188C81.75 510.126 85.5 501.751 85.5 492.5C85.5 483.25 81.75 474.874 75.688 468.812C69.626 462.75 61.251 459 52 459ZM580 371C570.75 371 562.374 374.75 556.312 380.812C550.25 386.874 546.5 395.249 546.5 404.5C546.5 413.75 550.25 422.126 556.312 428.188C562.374 434.25 570.749 438 580 438C589.25 438 597.626 434.25 603.688 428.188C609.75 422.126 613.5 413.751 613.5 404.5C613.5 395.25 609.75 386.874 603.688 380.812C597.626 374.75 589.251 371 580 371ZM492 371C482.75 371 474.374 374.75 468.312 380.812C462.25 386.874 458.5 395.249 458.5 404.5C458.5 413.75 462.25 422.126 468.312 428.188C474.374 434.25 482.749 438 492 438C501.25 438 509.626 434.25 515.688 428.188C521.75 422.126 525.5 413.751 525.5 404.5C525.5 395.25 521.75 386.874 515.688 380.812C509.626 374.75 501.251 371 492 371ZM404 371C394.75 371 386.374 374.75 380.312 380.812C374.25 386.874 370.5 395.249 370.5 404.5C370.5 413.75 374.25 422.126 380.312 428.188C386.374 434.25 394.749 438 404 438C413.25 438 421.626 434.25 427.688 428.188C433.75 422.126 437.5 413.751 437.5 404.5C437.5 395.25 433.75 386.874 427.688 380.812C421.626 374.75 413.251 371 404 371ZM316 371C306.75 371 298.374 374.75 292.312 380.812C286.25 386.874 282.5 395.249 282.5 404.5C282.5 413.75 286.25 422.126 292.312 428.188C298.374 434.25 306.749 438 316 438C325.25 438 333.626 434.25 339.688 428.188C345.75 422.126 349.5 413.751 349.5 404.5C349.5 395.25 345.75 386.874 339.688 380.812C333.626 374.75 325.251 371 316 371ZM228 371C218.75 371 210.374 374.75 204.312 380.812C198.25 386.874 194.5 395.249 194.5 404.5C194.5 413.75 198.25 422.126 204.312 428.188C210.374 434.25 218.749 438 228 438C237.25 438 245.626 434.25 251.688 428.188C257.75 422.126 261.5 413.751 261.5 404.5C261.5 395.25 257.75 386.874 251.688 380.812C245.626 374.75 237.251 371 228 371ZM140 371C130.75 371 122.374 374.75 116.312 380.812C110.25 386.874 106.5 395.249 106.5 404.5C106.5 413.75 110.25 422.126 116.312 428.188C122.374 434.25 130.749 438 140 438C149.25 438 157.626 434.25 163.688 428.188C169.75 422.126 173.5 413.751 173.5 404.5C173.5 395.25 169.75 386.874 163.688 380.812C157.626 374.75 149.251 371 140 371ZM52 371C42.75 371 34.374 374.75 28.312 380.812C22.25 386.874 18.5 395.249 18.5 404.5C18.5 413.75 22.25 422.126 28.312 428.188C34.374 434.25 42.749 438 52 438C61.25 438 69.626 434.25 75.688 428.188C81.75 422.126 85.5 413.751 85.5 404.5C85.5 395.25 81.75 386.874 75.688 380.812C69.626 374.75 61.251 371 52 371ZM52 283C42.75 283 34.374 286.75 28.312 292.812C22.25 298.874 18.5 307.249 18.5 316.5C18.5 325.75 22.25 334.126 28.312 340.188C34.374 346.25 42.749 350 52 350C61.25 350 69.626 346.25 75.688 340.188C81.75 334.126 85.5 325.751 85.5 316.5C85.5 307.25 81.75 298.874 75.688 292.812C69.626 286.75 61.251 283 52 283ZM140 283C130.75 283 122.374 286.75 116.312 292.812C110.25 298.874 106.5 307.249 106.5 316.5C106.5 325.75 110.25 334.126 116.312 340.188C122.374 346.25 130.749 350 140 350C149.25 350 157.626 346.25 163.688 340.188C169.75 334.126 173.5 325.751 173.5 316.5C173.5 307.25 169.75 298.874 163.688 292.812C157.626 286.75 149.251 283 140 283ZM228 283C218.75 283 210.374 286.75 204.312 292.812C198.25 298.874 194.5 307.249 194.5 316.5C194.5 325.75 198.25 334.126 204.312 340.188C210.374 346.25 218.749 350 228 350C237.25 350 245.626 346.25 251.688 340.188C257.75 334.126 261.5 325.751 261.5 316.5C261.5 307.25 257.75 298.874 251.688 292.812C245.626 286.75 237.251 283 228 283ZM316 283C306.75 283 298.374 286.75 292.312 292.812C286.25 298.874 282.5 307.249 282.5 316.5C282.5 325.75 286.25 334.126 292.312 340.188C298.374 346.25 306.749 350 316 350C325.25 350 333.626 346.25 339.688 340.188C345.75 334.126 349.5 325.751 349.5 316.5C349.5 307.25 345.75 298.874 339.688 292.812C333.626 286.75 325.251 283 316 283ZM404 283C394.75 283 386.374 286.75 380.312 292.812C374.25 298.874 370.5 307.249 370.5 316.5C370.5 325.75 374.25 334.126 380.312 340.188C386.374 346.25 394.749 350 404 350C413.25 350 421.626 346.25 427.688 340.188C433.75 334.126 437.5 325.751 437.5 316.5C437.5 307.25 433.75 298.874 427.688 292.812C421.626 286.75 413.251 283 404 283ZM492 283C482.75 283 474.374 286.75 468.312 292.812C462.25 298.874 458.5 307.249 458.5 316.5C458.5 325.75 462.25 334.126 468.312 340.188C474.374 346.25 482.749 350 492 350C501.25 350 509.626 346.25 515.688 340.188C521.75 334.126 525.5 325.751 525.5 316.5C525.5 307.25 521.75 298.874 515.688 292.812C509.626 286.75 501.251 283 492 283ZM580 283C570.75 283 562.374 286.75 556.312 292.812C550.25 298.874 546.5 307.249 546.5 316.5C546.5 325.75 550.25 334.126 556.312 340.188C562.374 346.25 570.749 350 580 350C589.25 350 597.626 346.25 603.688 340.188C609.75 334.126 613.5 325.751 613.5 316.5C613.5 307.25 609.75 298.874 603.688 292.812C597.626 286.75 589.251 283 580 283ZM140 195C130.75 195 122.374 198.75 116.312 204.812C110.25 210.874 106.5 219.249 106.5 228.5C106.5 237.75 110.25 246.126 116.312 252.188C122.374 258.25 130.749 262 140 262C149.25 262 157.626 258.25 163.688 252.188C169.75 246.126 173.5 237.751 173.5 228.5C173.5 219.25 169.75 210.874 163.688 204.812C157.626 198.75 149.251 195 140 195ZM228 195C218.75 195 210.374 198.75 204.312 204.812C198.25 210.874 194.5 219.249 194.5 228.5C194.5 237.75 198.25 246.126 204.312 252.188C210.374 258.25 218.749 262 228 262C237.25 262 245.626 258.25 251.688 252.188C257.75 246.126 261.5 237.751 261.5 228.5C261.5 219.25 257.75 210.874 251.688 204.812C245.626 198.75 237.251 195 228 195ZM316 195C306.75 195 298.374 198.75 292.312 204.812C286.25 210.874 282.5 219.249 282.5 228.5C282.5 237.75 286.25 246.126 292.312 252.188C298.374 258.25 306.749 262 316 262C325.25 262 333.626 258.25 339.688 252.188C345.75 246.126 349.5 237.751 349.5 228.5C349.5 219.25 345.75 210.874 339.688 204.812C333.626 198.75 325.251 195 316 195ZM404 195C394.75 195 386.374 198.75 380.312 204.812C374.25 210.874 370.5 219.249 370.5 228.5C370.5 237.75 374.25 246.126 380.312 252.188C386.374 258.25 394.749 262 404 262C413.25 262 421.626 258.25 427.688 252.188C433.75 246.126 437.5 237.751 437.5 228.5C437.5 219.25 433.75 210.874 427.688 204.812C421.626 198.75 413.251 195 404 195ZM492 195C482.75 195 474.374 198.75 468.312 204.812C462.25 210.874 458.5 219.249 458.5 228.5C458.5 237.75 462.25 246.126 468.312 252.188C474.374 258.25 482.749 262 492 262C501.25 262 509.626 258.25 515.688 252.188C521.75 246.126 525.5 237.751 525.5 228.5C525.5 219.25 521.75 210.874 515.688 204.812C509.626 198.75 501.251 195 492 195ZM580 195C570.75 195 562.374 198.75 556.312 204.812C550.25 210.874 546.5 219.249 546.5 228.5C546.5 237.75 550.25 246.126 556.312 252.188C562.374 258.25 570.749 262 580 262C589.25 262 597.626 258.25 603.688 252.188C609.75 246.126 613.5 237.751 613.5 228.5C613.5 219.25 609.75 210.874 603.688 204.812C597.626 198.75 589.251 195 580 195ZM52 195C42.75 195 34.374 198.75 28.312 204.812C22.25 210.874 18.5 219.249 18.5 228.5C18.5 237.75 22.25 246.126 28.312 252.188C34.374 258.25 42.749 262 52 262C61.25 262 69.626 258.25 75.688 252.188C81.75 246.126 85.5 237.751 85.5 228.5C85.5 219.25 81.75 210.874 75.688 204.812C69.626 198.75 61.251 195 52 195ZM580 107C570.75 107 562.374 110.75 556.312 116.812C550.25 122.874 546.5 131.249 546.5 140.5C546.5 149.75 550.25 158.126 556.312 164.188C562.374 170.25 570.749 174 580 174C589.25 174 597.626 170.25 603.688 164.188C609.75 158.126 613.5 149.751 613.5 140.5C613.5 131.25 609.75 122.874 603.688 116.812C597.626 110.75 589.251 107 580 107ZM492 107C482.75 107 474.374 110.75 468.312 116.812C462.25 122.874 458.5 131.249 458.5 140.5C458.5 149.75 462.25 158.126 468.312 164.188C474.374 170.25 482.749 174 492 174C501.25 174 509.626 170.25 515.688 164.188C521.75 158.126 525.5 149.751 525.5 140.5C525.5 131.25 521.75 122.874 515.688 116.812C509.626 110.75 501.251 107 492 107ZM404 107C394.75 107 386.374 110.75 380.312 116.812C374.25 122.874 370.5 131.249 370.5 140.5C370.5 149.75 374.25 158.126 380.312 164.188C386.374 170.25 394.749 174 404 174C413.25 174 421.626 170.25 427.688 164.188C433.75 158.126 437.5 149.751 437.5 140.5C437.5 131.25 433.75 122.874 427.688 116.812C421.626 110.75 413.251 107 404 107ZM316 107C306.75 107 298.374 110.75 292.312 116.812C286.25 122.874 282.5 131.249 282.5 140.5C282.5 149.75 286.25 158.126 292.312 164.188C298.374 170.25 306.749 174 316 174C325.25 174 333.626 170.25 339.688 164.188C345.75 158.126 349.5 149.751 349.5 140.5C349.5 131.25 345.75 122.874 339.688 116.812C333.626 110.75 325.251 107 316 107ZM228 107C218.75 107 210.374 110.75 204.312 116.812C198.25 122.874 194.5 131.249 194.5 140.5C194.5 149.75 198.25 158.126 204.312 164.188C210.374 170.25 218.749 174 228 174C237.25 174 245.626 170.25 251.688 164.188C257.75 158.126 261.5 149.751 261.5 140.5C261.5 131.25 257.75 122.874 251.688 116.812C245.626 110.75 237.251 107 228 107ZM140 107C130.75 107 122.374 110.75 116.312 116.812C110.25 122.874 106.5 131.249 106.5 140.5C106.5 149.75 110.25 158.126 116.312 164.188C122.374 170.25 130.749 174 140 174C149.25 174 157.626 170.25 163.688 164.188C169.75 158.126 173.5 149.751 173.5 140.5C173.5 131.25 169.75 122.874 163.688 116.812C157.626 110.75 149.251 107 140 107ZM52 107C42.75 107 34.374 110.75 28.312 116.812C22.25 122.874 18.5 131.249 18.5 140.5C18.5 149.75 22.25 158.126 28.312 164.188C34.374 170.25 42.749 174 52 174C61.25 174 69.626 170.25 75.688 164.188C81.75 158.126 85.5 149.751 85.5 140.5C85.5 131.25 81.75 122.874 75.688 116.812C69.626 110.75 61.251 107 52 107ZM580 19C570.75 19 562.374 22.75 556.312 28.812C550.25 34.874 546.5 43.249 546.5 52.5C546.5 61.75 550.25 70.126 556.312 76.188C562.374 82.25 570.749 86 580 86C589.25 86 597.626 82.25 603.688 76.188C609.75 70.126 613.5 61.751 613.5 52.5C613.5 43.25 609.75 34.874 603.688 28.812C597.626 22.75 589.251 19 580 19ZM492 19C482.75 19 474.374 22.75 468.312 28.812C462.25 34.874 458.5 43.249 458.5 52.5C458.5 61.75 462.25 70.126 468.312 76.188C474.374 82.25 482.749 86 492 86C501.25 86 509.626 82.25 515.688 76.188C521.75 70.126 525.5 61.751 525.5 52.5C525.5 43.25 521.75 34.874 515.688 28.812C509.626 22.75 501.251 19 492 19ZM404 19C394.75 19 386.374 22.75 380.312 28.812C374.25 34.874 370.5 43.249 370.5 52.5C370.5 61.75 374.25 70.126 380.312 76.188C386.374 82.25 394.749 86 404 86C413.25 86 421.626 82.25 427.688 76.188C433.75 70.126 437.5 61.751 437.5 52.5C437.5 43.25 433.75 34.874 427.688 28.812C421.626 22.75 413.251 19 404 19ZM316 19C306.75 19 298.374 22.75 292.312 28.812C286.25 34.874 282.5 43.249 282.5 52.5C282.5 61.75 286.25 70.126 292.312 76.188C298.374 82.25 306.749 86 316 86C325.25 86 333.626 82.25 339.688 76.188C345.75 70.126 349.5 61.751 349.5 52.5C349.5 43.25 345.75 34.874 339.688 28.812C333.626 22.75 325.251 19 316 19ZM228 19C218.75 19 210.374 22.75 204.312 28.812C198.25 34.874 194.5 43.249 194.5 52.5C194.5 61.75 198.25 70.126 204.312 76.188C210.374 82.25 218.749 86 228 86C237.25 86 245.626 82.25 251.688 76.188C257.75 70.126 261.5 61.751 261.5 52.5C261.5 43.25 257.75 34.874 251.688 28.812C245.626 22.75 237.251 19 228 19ZM140 19C130.75 19 122.374 22.75 116.312 28.812C110.25 34.874 106.5 43.249 106.5 52.5C106.5 61.75 110.25 70.126 116.312 76.188C122.374 82.25 130.749 86 140 86C149.25 86 157.626 82.25 163.688 76.188C169.75 70.126 173.5 61.751 173.5 52.5C173.5 43.25 169.75 34.874 163.688 28.812C157.626 22.75 149.251 19 140 19ZM52 19C42.75 19 34.374 22.75 28.312 28.812C22.25 34.874 18.5 43.249 18.5 52.5C18.5 61.75 22.25 70.126 28.312 76.188C34.374 82.25 42.749 86 52 86C61.25 86 69.626 82.25 75.688 76.188C81.75 70.126 85.5 61.751 85.5 52.5C85.5 43.25 81.75 34.874 75.688 28.812C69.626 22.75 61.251 19 52 19Z" fill="white" stroke="black" stroke-width="3"/>
<defs>
<filter id="filter0_i_1_11" x="0" y="11.5" width="632" height="588" filterUnits="userSpaceOnUse" color-interpolation-filters="sRGB">
<feFlood flood-opacity="0" result="BackgroundImageFix"/>
<feBlend mode="normal" in="SourceGraphic" in2="BackgroundImageFix" result="shape"/>
<feColorMatrix in="SourceAlpha" type="matrix" values="0 0 0 0 0 0 0 0 0 0 0 0 0 0 0 0 0 0 127 0" result="hardAlpha"/>
<feOffset dy="10"/>
<feGaussianBlur stdDeviation="2"/>
<feComposite in2="hardAlpha" operator="arithmetic" k2="-1" k3="1"/>
<feColorMatrix type="matrix" values="0 0 0 0 0 0 0 0 0 0 0 0 0 0 0 0 0 0 1 0"/>
<feBlend mode="normal" in2="shape" result="effect1_innerShadow_1_11"/>
</filter>
</defs>
</svg>
